<?xml version="1.0" encoding="UTF-8"?>
<!DOCTYPE svg PUBLIC "-//W3C//DTD SVG 1.1//EN" "http://www.w3.org/Graphics/SVG/1.1/DTD/svg11.dtd">
<!-- Creator: CorelDRAW 2020 (64-Bit) -->
<svg xmlns="http://www.w3.org/2000/svg" xml:space="preserve" width="2000px" height="2000px" version="1.1" style="shape-rendering:geometricPrecision; text-rendering:geometricPrecision; image-rendering:optimizeQuality; fill-rule:evenodd; clip-rule:evenodd"
viewBox="0 0 2000 2000"
 xmlns:xlink="http://www.w3.org/1999/xlink"
 xmlns:xodm="http://www.corel.com/coreldraw/odm/2003">
 <defs>
  <style type="text/css">
   <![CDATA[
    .fil2 {fill:#062330}
    .fil0 {fill:white}
    .fil1 {fill:url(#id0)}
   ]]>
  </style>
  <linearGradient id="id0" gradientUnits="userSpaceOnUse" x1="465.75" y1="1060.06" x2="718.44" y2="939.95">
   <stop offset="0" style="stop-opacity:1; stop-color:#33AFFE"/>
   <stop offset="1" style="stop-opacity:1; stop-color:#00E5BE"/>
  </linearGradient>
 </defs>
 <g id="Layer_x0020_1">
  <metadata id="CorelCorpID_0Corel-Layer"/>
  <rect class="fil0" width="2000" height="2000"/>
  <g id="_2244760827616">
   <path class="fil1" d="M546.04 1085.67l46.06 26.61 72.91 -42.11 0 28.07 -72.9 42.1 -72.94 -42.1 0 -28.08 26.87 15.51zm21.75 -127.78l0 56.14 24.31 14.04 24.3 -14.04 0 -28.06 -24.3 -14.02 0 -28.08 48.61 28.06 0 56.14 -48.61 28.06 -48.62 -28.06 0 -84.21 -24.31 14.04 0 84.21 72.93 42.09 72.92 -42.1c0,-28.08 -0.01,-56.13 -0.01,-84.21l-72.91 -42.09 -24.31 14.03 0 28.06zm121.54 126.32l-0.01 -28.07 24.32 -14.04 0 28.07 -24.31 14.04zm-218.78 -42.11l24.32 14.03 -0.01 28.08 -24.31 -14.04 0 -28.07zm24.31 -98.23l0.01 84.19 -24.31 -14.03 -0.01 -84.19 72.92 -42.11 24.31 14.03c-24.31,14.03 -48.6,28.07 -72.92,42.11zm121.55 -70.17l-24.31 14.03 -24.32 -14.04 24.32 -14.03 24.31 14.04zm72.91 154.37l0.01 -84.21 -72.92 -42.1 24.3 -14.03 72.92 42.1 0.01 84.2 -24.32 14.04z"/>
   <path class="fil2" d="M862.21 1058.86c26.54,0 54.22,-21.23 54.22,-57.63 0,-36.78 -26.73,-57.82 -54.6,-57.82 -14.98,0 -28.05,6.45 -35.83,16.3l0 -43.41 -25.59 0 0 140.29 25.4 0 0 -14.41c8.16,10.62 21.23,16.68 36.4,16.68zm612.83 0c26.73,0 54.41,-21.23 54.41,-57.63 0,-36.78 -26.73,-57.82 -54.6,-57.82 -15.17,0 -28.25,6.64 -36.02,17.06l0 -14.79 -25.4 0 0 138.02 25.4 0 0 -40.19c7.77,9.85 21.04,15.35 36.21,15.35zm-4.17 -23.51c-19.15,0 -32.99,-15.35 -32.99,-34.5 0,-18.96 13.84,-34.12 32.99,-34.12 18.77,0 33.37,14.97 33.37,34.12 0,19.34 -14.6,34.5 -33.37,34.5zm-77.82 -89.67l-25.6 0 0 60.86c0,19.52 -10.43,30.14 -24.64,30.14 -16.12,0 -23.7,-10.62 -23.7,-27.87l0 -63.13 -25.97 0 0 65.79c0,30.14 16.11,47.39 42.65,47.39 14.22,0 24.84,-5.69 31.85,-14.97l0 12.7 25.41 0 0 -110.91zm-173.19 113.18c31.85,0 57.44,-25.78 57.44,-57.63 0,-32.42 -25.59,-57.82 -57.44,-57.82 -32.04,0 -57.44,25.4 -57.44,57.82 0,31.85 25.4,57.63 57.44,57.63zm0 -24.08c-18.39,0 -32.23,-15.16 -32.23,-33.55 0,-18.77 13.84,-33.74 32.23,-33.74 18.2,0 32.23,14.97 32.23,33.74 0,18.39 -14.03,33.55 -32.23,33.55zm-160.1 21.81l25.59 0 0 -28.25 17.63 -19.53 33.18 47.78 28.62 0 -44.36 -62.94 42.85 -47.97 -30.71 0 -47.21 53.46 0 -82.84 -25.59 0 0 140.29zm-73.28 2.27c31.85,0 57.45,-25.78 57.45,-57.63 0,-32.42 -25.6,-57.82 -57.45,-57.82 -32.03,0 -57.44,25.4 -57.44,57.82 0,31.85 25.41,57.63 57.44,57.63zm0 -24.08c-18.39,0 -32.22,-15.16 -32.22,-33.55 0,-18.77 13.83,-33.74 32.22,-33.74 18.2,0 32.23,14.97 32.23,33.74 0,18.39 -14.03,33.55 -32.23,33.55zm-128.63 0.57c-18.96,0 -32.99,-15.35 -32.99,-34.5 0,-18.96 14.03,-34.12 32.99,-34.12 18.77,0 33.37,14.97 33.37,34.12 0,19.34 -14.6,34.5 -33.37,34.5z"/>
  </g>
 </g>
</svg>
